<svg xmlns="http://www.w3.org/2000/svg" width="1200" height="630" viewBox="0 0 1200 630" fill="none" role="img" aria-labelledby="title desc">
  <title id="title">Quizly OGP Image</title>
  <desc id="desc">Quizly brand image for social sharing.</desc>

  <rect width="1200" height="630" fill="#F8FAFC" />
  <rect x="46" y="46" width="1108" height="538" rx="44" fill="#FFFFFF" stroke="#CBD5E1" stroke-width="8" />

  <circle cx="110" cy="96" r="18" fill="#CCFBF1" />
  <circle cx="1088" cy="532" r="26" fill="#E2E8F0" />

  <g transform="translate(110 150)">
    <circle cx="136" cy="136" r="114" fill="#F8FAFC" stroke="#334155" stroke-width="10" />
    <circle cx="136" cy="136" r="62" fill="none" stroke="#94A3B8" stroke-width="16" />
    <rect x="168" y="176" width="62" height="18" rx="6" transform="rotate(40 168 176)" fill="#0F766E" />
  </g>

  <g transform="translate(386 210)" fill="#334155">
    <path fill-rule="evenodd" d="M44 8C20 8 2 26 2 50V84C2 108 20 126 44 126H74C98 126 116 108 116 84V50C116 26 98 8 74 8H44ZM44 28H74C86 28 96 38 96 50V84C96 96 86 106 74 106H44C32 106 22 96 22 84V50C22 38 32 28 44 28Z"/>
    <rect x="92" y="92" width="44" height="16" rx="5" transform="rotate(40 92 92)" fill="#0F766E"/>
    <path d="M158 30H180V86C180 98 190 108 202 108H214C226 108 236 98 236 86V30H258V86C258 110 238 128 214 128H202C178 128 158 110 158 86V30Z"/>
    <rect x="294" y="30" width="22" height="96" rx="4"/>
    <rect x="294" y="2" width="22" height="18" rx="4"/>
    <path d="M352 30H438V50L386 106H438V126H352V106L404 50H352V30Z"/>
    <rect x="474" y="8" width="22" height="118" rx="4"/>
    <path d="M532 30H556L584 80L612 30H636L595 106V152H573V106L532 30Z"/>
  </g>

  <text x="390" y="404" fill="#0F766E" font-family="Zen Maru Gothic, sans-serif" font-size="48" font-weight="700" letter-spacing="1">たのしく学べるクイズアプリ</text>
  <text x="390" y="462" fill="#64748B" font-family="Zen Maru Gothic, sans-serif" font-size="30" font-weight="500">学習の記録とポイントで、毎日の学びを続けやすく。</text>
</svg>
