<svg xmlns="http://www.w3.org/2000/svg" width="980" height="320" viewBox="0 0 980 320" fill="none" role="img" aria-labelledby="title desc">
  <title id="title">Quizly Logo Horizontal Dark</title>
  <desc id="desc">Geometric custom Quizly wordmark for dark backgrounds.</desc>

  <g transform="translate(24 24)">
    <circle cx="136" cy="136" r="114" fill="#1E293B" stroke="#E2E8F0" stroke-width="10" />
    <circle cx="136" cy="136" r="62" fill="none" stroke="#94A3B8" stroke-width="16" />
    <rect x="168" y="176" width="62" height="18" rx="6" transform="rotate(40 168 176)" fill="#5EEAD4" />
  </g>

  <g transform="translate(300 84)" fill="#E2E8F0">
    <path fill-rule="evenodd" d="M44 8C20 8 2 26 2 50V84C2 108 20 126 44 126H74C98 126 116 108 116 84V50C116 26 98 8 74 8H44ZM44 28H74C86 28 96 38 96 50V84C96 96 86 106 74 106H44C32 106 22 96 22 84V50C22 38 32 28 44 28Z"/>
    <rect x="92" y="92" width="44" height="16" rx="5" transform="rotate(40 92 92)" fill="#5EEAD4"/>

    <path d="M158 30H180V86C180 98 190 108 202 108H214C226 108 236 98 236 86V30H258V86C258 110 238 128 214 128H202C178 128 158 110 158 86V30Z"/>

    <rect x="294" y="30" width="22" height="96" rx="4"/>
    <rect x="294" y="2" width="22" height="18" rx="4"/>

    <path d="M352 30H438V50L386 106H438V126H352V106L404 50H352V30Z"/>

    <rect x="474" y="8" width="22" height="118" rx="4"/>

    <path d="M532 30H556L584 80L612 30H636L595 106V152H573V106L532 30Z"/>
  </g>
</svg>
