<svg xmlns="http://www.w3.org/2000/svg" width="640" height="640" viewBox="0 0 640 640" fill="none" role="img" aria-labelledby="title desc">
  <title id="title">Quizly Logo Stacked Light</title>
  <desc id="desc">Stacked version of logo proposal A.</desc>

  <g transform="translate(184 40)">
    <circle cx="136" cy="136" r="110" fill="#F8FAFC" stroke="#334155" stroke-width="10"/>

    <circle cx="136" cy="136" r="60" fill="none" stroke="#F43F5E" stroke-width="16" stroke-linecap="round" stroke-dasharray="86 290.99" stroke-dashoffset="0"/>
    <circle cx="136" cy="136" r="60" fill="none" stroke="#3B82F6" stroke-width="16" stroke-linecap="round" stroke-dasharray="86 290.99" stroke-dashoffset="-94.25"/>
    <circle cx="136" cy="136" r="60" fill="none" stroke="#F97316" stroke-width="16" stroke-linecap="round" stroke-dasharray="86 290.99" stroke-dashoffset="-188.50"/>
    <circle cx="136" cy="136" r="60" fill="none" stroke="#22C55E" stroke-width="16" stroke-linecap="round" stroke-dasharray="86 290.99" stroke-dashoffset="-282.75"/>

    <rect x="172" y="178" width="54" height="16" rx="7" transform="rotate(40 172 178)" fill="#334155"/>
  </g>

  <g transform="translate(72 360) scale(0.78)" fill="#334155">
    <path fill-rule="evenodd" d="M44 8C20 8 2 26 2 50V84C2 108 20 126 44 126H74C98 126 116 108 116 84V50C116 26 98 8 74 8H44ZM44 28H74C86 28 96 38 96 50V84C96 96 86 106 74 106H44C32 106 22 96 22 84V50C22 38 32 28 44 28Z"/>
    <rect x="92" y="92" width="44" height="16" rx="5" transform="rotate(40 92 92)"/>
    <path d="M158 30H180V86C180 98 190 108 202 108H214C226 108 236 98 236 86V30H258V86C258 110 238 128 214 128H202C178 128 158 110 158 86V30Z"/>
    <rect x="294" y="30" width="22" height="96" rx="4"/>
    <rect x="294" y="2" width="22" height="18" rx="4"/>
    <path d="M352 30H438V50L386 106H438V126H352V106L404 50H352V30Z"/>
    <rect x="474" y="8" width="22" height="118" rx="4"/>
    <path d="M532 30H556L584 80L612 30H636L595 106V152H573V106L532 30Z"/>
  </g>

  <g transform="translate(72 500)">
    <rect width="80" height="6" rx="3" fill="#F43F5E"/>
    <rect x="88" width="80" height="6" rx="3" fill="#3B82F6"/>
    <rect x="176" width="80" height="6" rx="3" fill="#F97316"/>
    <rect x="264" width="80" height="6" rx="3" fill="#22C55E"/>
  </g>
</svg>
